<svg xmlns="http://www.w3.org/2000/svg" width="1024" height="1024"><path d="M654.911 1023.996H369.145c-62.869 0-115.26-6.192-159.553-19.528-16.193-4.763-26.671-20.48-25.72-37.149 11.907-142.408 156.22-254.338 328.156-254.338s315.773 111.454 328.157 254.338c1.428 17.146-9.05 32.387-25.72 37.149-44.294 13.336-96.685 19.528-159.553 19.528zm-394.358-80.491c31.434 6.192 67.155 9.05 108.592 9.05h285.766c41.437 0 77.158-2.858 108.592-9.05-25.243-91.445-129.548-159.082-251.476-159.082-121.926 0-226.232 67.636-251.475 159.082z"/><path d="M87.856 87.862C151.415 24.304 246.522.004 369.115.004h285.768c122.594 0 217.703 24.3 281.258 87.858C999.701 151.421 1024 246.528 1024 369.121v285.768c0 92.904-13.884 169.751-48.099 229.224-35.064 60.94-89.331 99.948-161.735 120.441a35.717 35.717 0 0 1-45.322-31.358C760.409 873.544 654.542 784.437 512 784.437s-248.409 89.107-256.842 188.759a35.718 35.718 0 0 1-45.323 31.358c-72.404-20.495-126.67-59.501-161.734-120.441C13.882 824.64 0 747.793 0 654.889V369.121C0 246.528 24.3 151.42 87.858 87.862zm50.517 50.517C94.768 181.984 71.44 253.574 71.44 369.12v285.768c0 87.13 13.266 149.595 38.582 193.593 18.725 32.545 45.169 56.944 82.157 73.862 35.456-124.152 170.185-209.349 319.819-209.349s284.363 85.197 319.817 209.349c36.993-16.918 63.436-41.317 82.158-73.862 25.319-43.999 38.583-106.463 38.583-193.593V369.12c0-115.547-23.328-187.137-66.931-230.741-43.608-43.605-115.197-66.933-230.743-66.933H369.114c-115.547 0-187.137 23.328-230.741 66.933zm373.626 171.207c-74.575 0-134.788 60.213-134.788 134.788 0 74.705 60.341 135.263 134.788 135.263s134.788-60.559 134.788-135.263c0-74.574-60.212-134.788-134.788-134.788zM305.77 444.373c0-114.031 92.198-206.229 206.229-206.229s206.229 92.199 206.229 206.229c0 113.902-92.07 206.705-206.229 206.705-114.162 0-206.229-92.803-206.229-206.705z"/><path d="M511.994 651.079c-113.83 0-206.228-92.875-206.228-206.705s92.398-206.229 206.228-206.229c113.831 0 206.229 92.399 206.229 206.229s-92.398 206.705-206.229 206.705zm0-341.493c-74.3 0-134.787 60.489-134.787 134.788 0 74.776 60.487 135.263 134.787 135.263s134.788-60.488 134.788-135.263c0-74.299-60.488-134.788-134.788-134.788z"/></svg>