<svg xmlns="http://www.w3.org/2000/svg" width="1024" height="1024"><path d="M87.858 87.858C151.417 24.3 246.524 0 369.116 0h285.768c122.594 0 217.703 24.3 281.257 87.858C999.701 151.417 1024 246.524 1024 369.116v285.768c0 122.594-24.299 217.703-87.859 281.257C872.587 999.701 777.478 1024 654.884 1024H369.116c-122.593 0-217.701-24.299-281.258-87.859C24.3 872.587 0 777.478 0 654.884V369.116C0 246.523 24.3 151.415 87.858 87.858zm50.517 50.517C94.77 181.98 71.442 253.57 71.442 369.116v285.768c0 115.545 23.328 187.135 66.933 230.743 43.605 43.603 115.195 66.931 230.741 66.931h285.768c115.545 0 187.135-23.328 230.743-66.931 43.603-43.608 66.931-115.197 66.931-230.743V369.116c0-115.547-23.328-187.137-66.931-230.741C842.019 94.77 770.43 71.442 654.884 71.442H369.116c-115.547 0-187.137 23.328-230.741 66.933z"/><path d="M690.668 333.967c63.007 62.616 63.24 165.708-.119 229.497-44.141 44.113-107.315 57.744-163.064 40.203a35.706 35.706 0 0 0-35.931 8.768l-123.356 122.88-.3.3a5.787 5.787 0 0 1-.358.219c-.71.414-1.801.929-3.177 1.381-1.369.448-2.675.719-3.73.838-.672.076-1.061.072-1.174.072l-57.835-7.71c.001 0 .006 0 0 0-.133-.034-2.06-.519-4.555-3.053-2.473-2.519-3.4-4.939-3.593-5.849l-7.544-56.582-.029-.2c.006-.129.021-.348.06-.657.121-.958.406-2.291.921-3.82.512-1.524 1.133-2.891 1.729-3.949.345-.614.601-.981.719-1.143l122.19-122.189a35.722 35.722 0 0 0 8.883-35.764c-17.254-56.076-3.842-119.302 40.174-163.319 63.167-63.165 166.343-63.275 230.088.078zm50.361-50.672c-91.522-90.961-239.816-91.073-330.967.077-58.024 58.024-78.911 138.891-63.435 213.465L237.452 606.029c-8.746 9.231-14.721 20.856-18.287 31.463-3.489 10.378-5.986 23.705-4.011 37.164l7.583 56.867.102.71c2.738 17.804 11.852 33.582 23.29 45.218 11.41 11.602 27.461 21.409 46.471 23.833l56.822 7.573c13.116 1.882 26.326-.195 37.189-3.753 10.661-3.495 22.806-9.649 32.295-19.465l108.605-108.187c74.809 15.87 155.69-5.605 213.592-63.511l.081-.076c90.917-91.479 91.14-239.834-.158-330.568z"/><path d="M372.582 649.484c14.031-13.869 36.648-13.736 50.516.296l40.485 40.96c13.869 14.031 13.735 36.65-.295 50.514-14.031 13.869-36.648 13.736-50.516-.296l-40.485-40.96c-13.868-14.031-13.736-36.645.295-50.514zM530.79 450.085c0-26.304 21.323-47.627 47.627-47.627h.429c26.305 0 47.627 21.324 47.627 47.627s-21.323 47.627-47.627 47.627h-.429c-26.305 0-47.627-21.323-47.627-47.627z"/></svg>