<svg xmlns="http://www.w3.org/2000/svg" width="1024" height="1024"><path d="M321.488 1003.281c-13.336 0-27.149-3.334-39.532-10.002-27.148-14.289-43.817-42.865-43.817-73.347v-67.627C94.303 837.54 0 731.801 0 580.345V294.579c0-163.84 110.02-273.86 273.86-273.86h476.28c163.84 0 273.86 110.02 273.86 273.86v285.766c0 163.84-110.02 273.86-273.86 273.86H570.583L367.687 989.473c-13.812 9.05-30.004 13.808-46.198 13.808zM273.861 91.685c-122.88 0-202.418 79.539-202.418 202.418v285.771c0 122.88 79.539 202.418 202.418 202.418 19.528 0 35.721 16.193 35.721 35.721v101.448c0 6.192 3.811 9.05 6.192 10.478s7.144 2.858 12.383-.476l211.944-140.979c5.715-3.811 12.859-6.192 20.004-6.192h190.512c122.88 0 202.418-79.539 202.418-202.418V294.103c0-122.88-79.539-202.418-202.418-202.418H273.862z"/><path d="M511.991 517c-19.528 0-35.721-16.193-35.721-35.721v-10.002c0-55.249 40.484-82.397 55.724-92.875 17.623-11.907 23.337-20.004 23.337-32.386 0-23.814-19.528-43.343-43.341-43.343s-43.341 19.529-43.341 43.343c0 19.528-16.193 35.721-35.721 35.721-19.526 0-35.719-16.193-35.719-35.721 0-63.345 51.436-114.785 114.782-114.785s114.784 51.44 114.784 114.785c0 54.296-40.007 81.444-54.772 91.445-18.575 12.383-24.29 20.48-24.29 33.816v10.002c0 20.004-16.193 35.721-35.721 35.721zM512 635.604c-20.004 0-35.721-16.193-35.721-35.721s16.193-35.721 35.721-35.721c19.528 0 35.721 16.193 35.721 35.721S532.004 635.604 512 635.604z"/></svg>