<svg xmlns="http://www.w3.org/2000/svg" width="1024" height="1024"><path d="M112 672.04c19.728 0 35.721 15.993 35.721 35.721 0 55.277 52.502 104.306 134.788 104.306 81.653 0 134.311-49.376 134.311-104.306 0-19.727 15.992-35.721 35.721-35.721s35.721 15.993 35.721 35.721v96.684c0 106.143-97.015 183.843-205.753 183.843-108.6 0-206.23-77.581-206.23-183.843v-96.684c0-19.727 15.992-35.721 35.721-35.721zm47.798 178.394c20.497 37.693 65.497 66.412 122.711 66.412 57.248 0 102.119-28.786 122.443-66.622-35.226 21.523-78.292 33.282-122.443 33.282-44.264 0-87.417-11.645-122.711-33.073z"/><path d="M281.482 464.839c-38.977 0-72.863 13.36-96.945 34.478l-.029.024c-23.815 20.842-37.333 48.124-37.333 77.424 0 16.884 4.661 32.43 12.907 46.233 20.359 32.972 65.024 58.073 121.877 58.073 57.081 0 101.578-24.785 121.837-58.001 8.274-13.826 12.952-29.396 12.952-46.303 0-29.387-13.565-56.806-37.633-76.862l-.451-.377.003-.005c-24.375-20.999-58.459-34.682-97.185-34.682zm-144.048-19.237c37.834-33.177 88.722-52.204 144.048-52.204 55.469 0 106.075 19.579 143.593 51.809 38.673 32.33 63.114 79.129 63.114 131.558 0 30.682-8.635 58.897-23.19 83.154l-.109.186c-35.973 59.135-106.709 92.407-182.932 92.407-76.413 0-146.955-33.873-182.842-92.27l-.2-.324h.002c-14.555-24.257-23.186-52.471-23.186-83.154 0-52.619 24.582-98.681 61.731-131.187l-.029.026z"/><path d="M282.508 464.362c-79.461 0-134.788 54.763-134.788 112.401V707.74c0 54.815 52.995 104.306 134.788 104.306 81.74 0 134.311-48.971 134.311-104.306V576.763c0-29.387-13.589-57.077-37.23-77.809-24.368-20.947-58.409-34.592-97.081-34.592zM76.28 576.765c0-106.203 97.084-183.843 206.23-183.843 55.577 0 106.274 19.657 143.815 52l.208.179-.001.001c37.258 32.603 61.731 79.173 61.731 131.664v130.977c0 108.506-99.839 175.747-205.753 175.747-105.862 0-206.23-67.674-206.23-175.747V576.766zM841.586 414.351c-17.103 0-32.149 6.632-42.994 17.773l-.643.642c-12.669 12.367-19.747 29.978-17.965 48.686l.043.42h-.005c2.519 30.243 31.601 56.311 67.274 56.311h92.536c7.701-.495 12.726-6.515 12.726-12.855V427.21c0-6.34-5.029-12.36-12.726-12.857h-98.247zm-93.865-32.392c24.371-24.855 57.782-39.052 93.865-39.052h99.066c.424 0 .852.007 1.276.023 45.39 1.621 82.072 38.35 82.072 84.276v98.118c0 45.928-36.688 82.653-82.072 84.273a38.79 38.79 0 0 1-1.276.024h-93.356c-67.136 0-132.292-49.09-138.449-121.609-3.848-41.061 11.783-79.424 38.873-106.054z"/><path d="M273.861 107.153c-11.633 0-22.672.831-33.147 2.443l-.983.137c-52.74 6.618-94.199 29.199-122.587 62.505-28.462 33.392-45.702 79.842-45.702 137.334v95.256c0 19.728-15.992 35.721-35.721 35.721S0 424.557 0 404.828v-95.256c0-72.055 21.815-135.625 62.772-183.677 40.932-48.023 99.074-78.28 167.572-86.985 14.135-2.148 28.651-3.198 43.516-3.198h428.651c12.845 0 26.71.465 40.698 2.72 69.084 8.222 127.881 38.283 169.355 86.344 41.579 48.182 63.807 112.178 63.807 184.796v69.061c0 19.728-15.993 35.721-35.721 35.721h-99.066c-17.099 0-32.139 6.631-42.989 17.775l-.643.642c-12.674 12.37-19.751 29.982-17.97 48.686l.043.42h-.005c2.519 30.243 31.601 56.311 67.279 56.311h93.351c19.727 0 35.721 15.993 35.721 35.721v69.061c0 79.558-26.676 148.632-75.952 197.908S782.068 916.83 702.511 916.83h-119.07c-19.727 0-35.721-15.993-35.721-35.721s15.993-35.721 35.721-35.721h119.07c63.326 0 113.321-20.951 147.394-55.025s55.025-84.068 55.025-147.394v-33.34H847.3c-67.132 0-132.296-49.09-138.455-121.609-3.848-41.065 11.788-79.427 38.879-106.055 24.367-24.852 57.773-39.053 93.86-39.053h63.345v-33.34c0-57.882-17.542-104.622-46.452-138.121-28.844-33.424-70.946-55.942-124.371-62.156a36.553 36.553 0 0 1-1.748-.247c-8.569-1.428-18.204-1.895-29.848-1.895H273.859z"/></svg>