<svg xmlns="http://www.w3.org/2000/svg" width="1024" height="1024"><path d="M654.884 1024H369.116C110.496 1024 0 913.504 0 654.884V369.116C0 110.496 110.496 0 369.116 0h285.768C913.504 0 1024 110.496 1024 369.116v285.768C1024 913.504 913.504 1024 654.884 1024zM369.118 71.442c-219.565 0-297.674 78.11-297.674 297.674v285.768c0 219.565 78.11 297.674 297.674 297.674h285.768c219.565 0 297.674-78.11 297.674-297.674V369.116c0-219.565-78.11-297.674-297.674-297.674H369.118z"/><path d="M512.03 563.424c-6.192 0-12.383-1.428-18.098-4.763L241.505 412.92c-17.146-10.002-22.863-31.91-12.86-48.58 10.002-17.146 31.911-22.862 48.581-12.859l234.329 135.74 232.9-134.787c17.146-10.002 39.055-3.811 48.58 12.859s3.811 39.055-12.859 48.58L529.653 558.662c-5.239 2.858-11.431 4.763-17.623 4.763z"/><path d="M512.001 822.539c-19.528 0-35.721-16.193-35.721-35.721V527.722c0-19.528 16.193-35.721 35.721-35.721s35.721 16.193 35.721 35.721v259.096c0 19.528-16.193 35.721-35.721 35.721z"/><path d="M512.01 833.479c-27.624 0-54.768-6.192-76.677-18.098l-152.412-84.778c-45.723-25.243-80.968-85.73-80.968-138.121V431.023c0-51.914 35.722-112.402 80.968-138.121l152.412-84.778c43.818-24.29 109.54-24.29 153.357 0l152.409 84.778c45.723 25.243 80.972 85.73 80.972 138.121v161.459c0 51.915-35.726 112.402-80.972 138.121L588.69 815.381c-21.909 12.383-49.057 18.098-76.681 18.098zm0-571.535c-15.717 0-30.959 2.858-41.913 9.05L317.69 355.772c-23.337 12.859-44.296 49.057-44.296 75.252v161.459c0 26.671 20.957 62.393 44.296 75.252l152.407 84.778c21.909 12.383 61.916 12.383 83.825 0l152.409-84.778c23.337-12.859 44.299-49.057 44.299-75.252V431.024c0-26.671-20.961-62.393-44.299-75.252l-152.409-84.778c-10.954-6.192-26.195-9.05-41.913-9.05z"/></svg>