<svg xmlns="http://www.w3.org/2000/svg" width="1024" height="1024"><path d="M512 1023.285c-30.006 0-58.106-11.426-79.062-32.859l-72.394-72.394c-5.715-5.715-20.956-11.907-28.578-11.907H229.09c-61.916 0-111.926-50.014-111.926-111.93V691.323c0-7.62-6.192-22.862-11.907-28.577l-72.394-72.394C11.907 569.396 0 541.291 0 511.285s11.431-58.106 32.863-79.062l72.394-72.395c5.715-5.715 11.907-20.955 11.907-28.575V228.381c0-61.916 50.01-111.93 111.926-111.93h102.876c7.62 0 22.862-6.192 28.578-11.907l72.394-72.395c41.913-41.913 116.212-41.913 158.125 0l72.394 72.395c5.715 5.715 20.956 11.907 28.577 11.907H794.91c61.916 0 111.926 50.014 111.926 111.93v102.872c0 7.62 6.192 22.861 11.907 28.575l72.394 72.395c20.956 20.956 32.863 49.057 32.863 79.062s-11.431 58.111-32.863 79.067l-72.394 72.394c-5.715 5.715-11.907 20.956-11.907 28.577v102.872c0 61.916-50.01 111.93-111.926 111.93H692.034c-7.62 0-22.862 6.192-28.577 11.907l-72.394 72.394c-20.956 21.432-49.057 32.859-79.062 32.859zm-356.257-411.03c19.051 19.051 32.863 52.396 32.863 79.067v102.872c0 22.385 18.099 40.488 40.484 40.488h102.876c26.671 0 60.012 13.808 79.062 32.859l72.394 72.394c15.241 15.241 41.913 15.241 57.154 0l72.394-72.394c19.051-19.051 52.391-32.859 79.062-32.859h102.876c22.385 0 40.484-18.103 40.484-40.488V691.322c0-26.671 13.812-60.016 32.863-79.067l72.394-72.394c7.62-7.62 11.907-17.623 11.907-28.577s-4.286-20.951-11.907-28.572l-72.394-72.397c-19.051-19.051-32.863-52.393-32.863-79.064V228.379c0-22.385-18.098-40.488-40.484-40.488H692.032c-26.671 0-60.011-13.809-79.062-32.861l-72.394-72.395c-15.241-15.241-41.913-15.241-57.154 0l-72.394 72.395c-19.051 19.051-52.391 32.861-79.062 32.861H229.09c-22.385 0-40.484 18.103-40.484 40.488v102.872c0 26.671-13.812 60.013-32.863 79.064l-72.394 72.397c-7.62 7.62-11.907 17.617-11.907 28.572s4.286 20.956 11.907 28.577l72.394 72.394z"/><path d="M654.894 701.782c-26.671 0-48.104-21.432-48.104-47.628s21.432-47.628 47.628-47.628c26.195 0 47.628 21.432 47.628 47.628s-20.956 47.628-47.152 47.628zM369.593 416.014c-26.671 0-48.104-21.432-48.104-47.628s21.432-47.628 47.628-47.628c26.195 0 47.628 21.432 47.628 47.628s-20.956 47.628-47.152 47.628zM369.09 689.851c-9.05 0-18.098-3.334-25.243-10.478-13.812-13.812-13.812-36.674 0-50.485l285.77-285.77c13.812-13.812 36.674-13.812 50.485 0s13.812 36.677 0 50.489l-285.77 285.767c-7.144 7.144-16.193 10.478-25.243 10.478z"/></svg>