<!-- Generated by IcoMoon.io -->
<svg version="1.1" xmlns="http://www.w3.org/2000/svg" width="1024" height="1024" viewBox="0 0 1024 1024">
<g id="icomoon-ignore">
</g>
<path fill="#000" d="M511.997 1023.999c-32.259 0-65.002-7.221-90.518-22.15l-264.817-152.628c-107.853-72.707-114.593-83.779-114.593-197.892v-278.298c0-114.113 6.259-125.187 112.187-196.928l266.741-154.076c50.558-29.37 130.002-29.37 180.558 0l265.781 153.113c107.852 72.704 114.594 83.779 114.594 197.891v277.817c0 114.11-6.262 125.186-112.187 196.927l-266.746 154.075c-26.001 14.928-58.74 22.15-90.999 22.15zM511.997 72.583c-20.222 0-39.964 3.852-53.927 12.038l-264.815 153.113c-78.483 52.963-78.483 52.963-78.483 135.298v277.817c0 82.333 0 82.333 80.408 136.741l262.889 151.669c28.408 16.368 79.928 16.368 108.336 0l264.815-153.113c78.001-52.965 78.001-52.965 78.001-135.298v-277.817c0-82.335 0-82.335-80.406-136.743l-262.892-151.668c-13.964-8.185-33.705-12.038-53.927-12.038z"></path>
<path fill="#000" d="M511.988 692.745c-99.666 0-180.557-80.889-180.557-180.555s80.891-180.555 180.557-180.555c99.666 0 180.555 80.889 180.555 180.555s-80.889 180.555-180.555 180.555zM511.988 403.853c-59.706 0-108.336 48.63-108.336 108.336s48.63 108.336 108.336 108.336c59.706 0 108.336-48.63 108.336-108.336s-48.63-108.336-108.336-108.336z"></path>
</svg>
