<?xml version="1.0" encoding="utf-8"?><svg xmlns="http://www.w3.org/2000/svg" xmlns:xlink="http://www.w3.org/1999/xlink"><symbol viewBox="0 0 1024 1024" id="icon-search" xmlns="http://www.w3.org/2000/svg"><path d="M460.799 102.402c-197.939 0-358.399 160.461-358.399 358.399S262.861 819.2 460.799 819.2c197.939 0 358.399-160.461 358.399-358.399S658.737 102.402 460.799 102.402zM0 460.801C0 206.309 206.307.002 460.799.002c254.494 0 460.799 206.307 460.799 460.799 0 254.494-206.305 460.799-460.799 460.799C206.307 921.6 0 715.295 0 460.801z"/><path d="M713.875 713.877c19.994-19.994 52.413-19.994 72.407 0l222.72 222.72c19.999 19.994 19.999 52.413 0 72.407-19.994 19.994-52.413 19.994-72.407 0l-222.72-222.72c-19.994-19.994-19.994-52.413 0-72.407z"/></symbol></svg>